<?xml version="1.0" encoding="UTF-8" standalone="no"?>
<!DOCTYPE svg PUBLIC "-//W3C//DTD SVG 1.1//EN" "http://www.w3.org/Graphics/SVG/1.1/DTD/svg11.dtd">
<svg width="100%" height="100%" viewBox="0 0 956 1016" version="1.1" xmlns="http://www.w3.org/2000/svg" xmlns:xlink="http://www.w3.org/1999/xlink" xml:space="preserve" xmlns:serif="http://www.serif.com/" style="fill-rule:evenodd;clip-rule:evenodd;stroke-linejoin:round;stroke-miterlimit:2;">
    <g transform="matrix(1,0,0,1,-14680.9,-7044.53)">
        <g transform="matrix(1,0,0,1,10352.5,3344.28)">
            <g transform="matrix(1.44168,0,0,1.44168,-2195.27,-1802.77)">
                <path d="M5084.6,4252.85C5080.96,4254.46 5076.72,4252.76 5075.14,4249.06C5073.56,4245.36 5075.24,4241.06 5078.88,4239.45L5170.57,4198.99C5174.21,4197.39 5178.45,4199.09 5180.03,4202.78C5181.61,4206.48 5179.94,4210.79 5176.3,4212.39L5084.6,4252.85ZM5074.36,4153.57L5030.33,4198.31C5027.52,4201.16 5022.97,4201.16 5020.16,4198.31C5017.35,4195.46 5017.35,4190.83 5020.16,4187.98L5063.45,4143.99C5056.93,4136.12 5053.01,4126.01 5053.01,4114.99C5053.01,4089.87 5073.41,4069.46 5098.54,4069.46C5109.29,4069.46 5119.18,4073.2 5126.97,4079.44L5175.42,4030.21C5178.23,4027.36 5182.78,4027.36 5185.59,4030.21C5188.39,4033.06 5188.39,4037.69 5185.59,4040.54L5136.72,4090.2C5141.37,4097.33 5144.07,4105.85 5144.07,4114.99C5144.07,4140.12 5123.67,4160.52 5098.54,4160.52C5089.66,4160.52 5081.36,4157.98 5074.36,4153.57ZM5098.54,4085.43C5082.22,4085.43 5068.98,4098.68 5068.98,4114.99C5068.98,4131.31 5082.22,4144.56 5098.54,4144.56C5114.85,4144.56 5128.1,4131.31 5128.1,4114.99C5128.1,4098.68 5114.85,4085.43 5098.54,4085.43ZM4596.01,4356.57C4786.12,4135.68 4917.66,4136.89 5119.52,4356.57C4917.66,4576.25 4786.12,4577.46 4596.01,4356.57ZM4937.83,4302.66C4930.83,4302.66 4925.15,4308.34 4925.15,4315.34C4925.15,4322.33 4930.83,4328.01 4937.83,4328.01C4944.83,4328.01 4950.51,4322.33 4950.51,4315.34C4950.51,4308.34 4944.83,4302.66 4937.83,4302.66ZM4921.37,4253.65C4916.34,4249.11 4909.68,4246.35 4902.38,4246.35C4886.71,4246.35 4873.99,4259.07 4873.99,4274.74C4873.99,4278.51 4874.72,4282.11 4876.06,4285.4C4880.34,4295.6 4890.31,4302.75 4901.9,4302.75C4917.4,4302.75 4929.98,4289.96 4929.98,4274.21C4929.98,4266.13 4926.68,4258.84 4921.37,4253.65ZM4782.61,4243.59C4783.22,4243.06 4783.83,4242.53 4784.45,4242.02C4735.39,4261.95 4684.84,4302.95 4628.39,4365.13C4794.98,4548.66 4910.26,4547.65 5087.15,4365.13C5032.79,4309.04 4984.24,4270.09 4938.24,4248.37C4960.47,4269.6 4974.32,4299.52 4974.32,4332.65C4974.32,4377.44 4948.99,4416.37 4911.88,4435.88C4895.74,4444.62 4877.32,4449.58 4857.77,4449.58C4841.22,4449.58 4825.49,4446.03 4811.26,4439.64C4811.27,4439.61 4811.29,4439.58 4811.31,4439.55C4770.07,4421.59 4741.22,4380.46 4741.22,4332.65C4741.22,4296.95 4757.3,4264.98 4782.61,4243.59ZM4991.57,4064.95C4990.05,4068.68 4985.84,4070.45 4982.18,4068.91C4978.51,4067.36 4976.77,4063.09 4978.28,4059.36L5032.85,3925.5C5034.37,3921.78 5038.57,3920.01 5042.24,3921.55C5045.91,3923.09 5047.65,3927.37 5046.13,3931.09L4991.57,4064.95ZM4635.94,4239.4C4639.6,4240.95 4641.35,4245.22 4639.83,4248.95C4638.31,4252.67 4634.1,4254.44 4630.44,4252.9L4534.32,4212.44C4530.65,4210.9 4528.91,4206.62 4530.43,4202.9C4531.94,4199.17 4536.15,4197.4 4539.82,4198.94L4635.94,4239.4ZM4850.31,4009.41C4823.16,4005.98 4802.12,3982.42 4802.12,3953.91C4802.12,3925.41 4823.16,3901.85 4850.31,3898.42L4850.31,3824.39C4850.31,3820.36 4853.53,3817.09 4857.5,3817.09C4861.46,3817.09 4864.69,3820.36 4864.69,3824.39L4864.69,3898.51C4891.5,3902.24 4912.19,3925.64 4912.19,3953.91C4912.19,3982.18 4891.5,4005.58 4864.69,4009.32L4864.69,4144.13C4864.69,4148.16 4861.46,4151.44 4857.5,4151.44C4853.53,4151.44 4850.31,4148.16 4850.31,4144.13L4850.31,4009.41ZM4850.31,3913.19C4831.13,3916.5 4816.5,3933.49 4816.5,3953.91C4816.5,3974.34 4831.13,3991.33 4850.31,3994.64C4852.53,3995.03 4854.82,3995.23 4857.16,3995.23C4859.73,3995.23 4862.24,3994.98 4864.69,3994.52C4883.53,3990.93 4897.81,3974.1 4897.81,3953.91C4897.81,3933.73 4883.53,3916.9 4864.69,3913.31C4862.24,3912.84 4859.73,3912.6 4857.16,3912.6C4854.82,3912.6 4852.53,3912.8 4850.31,3913.19ZM4952.95,4159.7C4951.43,4163.43 4947.22,4165.2 4943.55,4163.66C4939.89,4162.11 4938.15,4157.84 4939.66,4154.11L4956.49,4112.84C4958.01,4109.11 4962.22,4107.34 4965.88,4108.88C4969.55,4110.43 4971.29,4114.7 4969.77,4118.43L4952.95,4159.7ZM4785.03,4154.11C4786.55,4157.84 4784.81,4162.11 4781.14,4163.66C4777.48,4165.2 4773.27,4163.43 4771.75,4159.7L4727.65,4051.5C4726.13,4047.78 4727.87,4043.5 4731.54,4041.96C4735.2,4040.42 4739.41,4042.19 4740.93,4045.91L4785.03,4154.11ZM4606.72,4112.86L4527.12,4031.98C4524.32,4029.13 4524.32,4024.5 4527.12,4021.65C4529.93,4018.8 4534.48,4018.8 4537.29,4021.65L4616.97,4102.62C4624.46,4097.21 4633.66,4094.01 4643.61,4094.01C4668.73,4094.01 4689.14,4114.41 4689.14,4139.54C4689.14,4149.75 4685.77,4159.17 4680.09,4166.77L4700.97,4187.98C4703.78,4190.83 4703.78,4195.46 4700.97,4198.31C4698.16,4201.16 4693.61,4201.16 4690.8,4198.31L4669.69,4176.86C4662.3,4182.03 4653.31,4185.07 4643.61,4185.07C4618.48,4185.07 4598.07,4164.67 4598.07,4139.54C4598.07,4129.58 4601.28,4120.36 4606.72,4112.86ZM4668.69,4155.18C4671.53,4150.64 4673.17,4145.28 4673.17,4139.54C4673.17,4123.23 4659.92,4109.98 4643.61,4109.98C4638.03,4109.98 4632.82,4111.53 4628.37,4114.21C4624.18,4116.74 4620.66,4120.28 4618.16,4124.5C4615.55,4128.9 4614.05,4134.05 4614.05,4139.54C4614.05,4155.86 4627.29,4169.1 4643.61,4169.1C4648.93,4169.1 4653.93,4167.69 4658.24,4165.23C4662.5,4162.79 4666.1,4159.33 4668.69,4155.18ZM4719.8,3994.08C4721.32,3997.8 4719.57,4002.08 4715.91,4003.62C4712.24,4005.16 4708.04,4003.39 4706.52,3999.67L4678.57,3931.09C4677.05,3927.37 4678.79,3923.09 4682.45,3921.55C4686.12,3920.01 4690.33,3921.78 4691.85,3925.5L4719.8,3994.08Z" style="fill:rgb(31,58,95);"/>
            </g>
        </g>
    </g>
</svg>
