<?xml version="1.0" encoding="UTF-8" standalone="no"?>
<!DOCTYPE svg PUBLIC "-//W3C//DTD SVG 1.1//EN" "http://www.w3.org/Graphics/SVG/1.1/DTD/svg11.dtd">
<svg width="100%" height="100%" viewBox="0 0 223 257" version="1.1" xmlns="http://www.w3.org/2000/svg" xmlns:xlink="http://www.w3.org/1999/xlink" xml:space="preserve" xmlns:serif="http://www.serif.com/" style="fill-rule:evenodd;clip-rule:evenodd;stroke-linejoin:round;stroke-miterlimit:2;">
    <g transform="matrix(1,0,0,1,-14802.1,-6096.22)">
        <g transform="matrix(1,0,0,1,10352.5,3344.28)">
            <g transform="matrix(0.461561,0,0,0.461561,3988.52,999.779)">
                <path d="M1222.09,3806.49C1233.16,3800.1 1246.8,3800.1 1257.86,3806.49C1302.52,3832.27 1418.53,3899.25 1463.19,3925.03C1474.26,3931.42 1481.07,3943.23 1481.07,3956.01L1481.07,4193.1C1481.07,4205.88 1474.26,4217.69 1463.19,4224.07C1418.53,4249.86 1302.52,4316.84 1257.86,4342.62C1246.8,4349.01 1233.16,4349.01 1222.09,4342.62C1177.44,4316.84 1061.42,4249.86 1016.77,4224.07C1005.7,4217.69 998.883,4205.88 998.883,4193.1C998.883,4141.53 998.883,4007.57 998.883,3956.01C998.883,3943.23 1005.7,3931.42 1016.77,3925.03C1061.42,3899.25 1177.44,3832.27 1222.09,3806.49ZM1369.97,4053.41C1374.15,4056.04 1379.09,4057.56 1384.39,4057.56C1399.37,4057.56 1411.54,4045.39 1411.54,4030.41C1411.54,4024.95 1409.93,4019.88 1407.16,4015.62L1436.29,3986.01C1437.97,3984.31 1437.97,3981.55 1436.29,3979.85C1434.62,3978.15 1431.9,3978.15 1430.23,3979.85L1401.34,4009.21C1396.69,4005.49 1390.8,4003.26 1384.39,4003.26C1369.4,4003.26 1357.24,4015.42 1357.24,4030.41C1357.24,4036.97 1359.58,4043 1363.46,4047.7L1337.65,4073.93C1335.98,4075.63 1335.98,4078.39 1337.65,4080.09C1339.33,4081.79 1342.04,4081.79 1343.71,4080.09L1369.97,4053.41ZM1384.39,4012.78C1394.12,4012.78 1402.02,4020.68 1402.02,4030.41C1402.02,4040.14 1394.12,4048.03 1384.39,4048.03C1374.66,4048.03 1366.76,4040.14 1366.76,4030.41C1366.76,4020.68 1374.66,4012.78 1384.39,4012.78ZM1108.55,4104.59L1051.23,4080.47C1049.05,4079.55 1046.54,4080.6 1045.63,4082.82C1044.73,4085.04 1045.77,4087.59 1047.95,4088.51L1105.27,4112.64C1107.45,4113.56 1109.96,4112.5 1110.87,4110.28C1111.77,4108.06 1110.73,4105.51 1108.55,4104.59ZM1236.37,3967.45L1236.37,4047.78C1236.37,4050.18 1238.29,4052.14 1240.66,4052.14C1243.02,4052.14 1244.94,4050.18 1244.94,4047.78L1244.94,3967.39C1260.94,3965.17 1273.27,3951.21 1273.27,3934.36C1273.27,3917.5 1260.94,3903.55 1244.94,3901.32L1244.94,3857.13C1244.94,3854.72 1243.02,3852.77 1240.66,3852.77C1238.29,3852.77 1236.37,3854.72 1236.37,3857.13L1236.37,3901.27C1220.19,3903.31 1207.64,3917.36 1207.64,3934.36C1207.64,3951.36 1220.19,3965.4 1236.37,3967.45ZM1236.37,3910.07C1237.7,3909.84 1239.07,3909.72 1240.46,3909.72C1241.99,3909.72 1243.49,3909.87 1244.94,3910.14C1256.18,3912.29 1264.7,3922.32 1264.7,3934.36C1264.7,3946.39 1256.18,3956.43 1244.94,3958.57C1243.49,3958.85 1241.99,3958.99 1240.46,3958.99C1239.07,3958.99 1237.7,3958.87 1236.37,3958.64C1224.93,3956.67 1216.21,3946.54 1216.21,3934.36C1216.21,3922.18 1224.93,3912.05 1236.37,3910.07ZM1297.57,4057.07L1307.61,4032.45C1308.51,4030.23 1307.47,4027.68 1305.29,4026.76C1303.1,4025.84 1300.59,4026.9 1299.69,4029.12L1289.65,4053.73C1288.75,4055.95 1289.79,4058.5 1291.97,4059.42C1294.16,4060.34 1296.67,4059.29 1297.57,4057.07ZM1376.08,4112.61L1430.76,4088.49C1432.92,4087.53 1433.92,4084.96 1432.98,4082.75C1432.04,4080.55 1429.51,4079.54 1427.34,4080.49L1372.66,4104.62C1370.49,4105.58 1369.5,4108.14 1370.44,4110.35C1371.38,4112.55 1373.91,4113.57 1376.08,4112.61ZM1087.9,4170.81C1086.08,4172.9 1086.08,4176.01 1087.9,4178.1C1198.47,4304.89 1276.12,4304.25 1393.41,4178.23C1395.39,4176.1 1395.39,4172.81 1393.41,4170.68C1276.12,4044.66 1198.47,4044.02 1087.9,4170.81ZM1288.56,4142.31C1292.73,4142.31 1296.12,4145.7 1296.12,4149.87C1296.12,4154.04 1292.73,4157.43 1288.56,4157.43C1284.39,4157.43 1281,4154.04 1281,4149.87C1281,4145.7 1284.39,4142.31 1288.56,4142.31ZM1278.75,4113.08C1281.91,4116.18 1283.88,4120.53 1283.88,4125.34C1283.88,4134.73 1276.38,4142.36 1267.13,4142.36C1260.22,4142.36 1254.28,4138.1 1251.73,4132.02C1250.93,4130.05 1250.49,4127.91 1250.49,4125.66C1250.49,4116.32 1258.08,4108.73 1267.42,4108.73C1271.77,4108.73 1275.75,4110.38 1278.75,4113.08ZM1196.01,4107.09C1180.91,4119.84 1171.32,4138.9 1171.32,4160.19C1171.32,4188.7 1188.53,4213.23 1213.12,4223.94C1213.11,4223.95 1213.1,4223.97 1213.09,4223.99C1221.57,4227.8 1230.95,4229.91 1240.82,4229.91C1252.48,4229.91 1263.46,4226.96 1273.09,4221.75C1295.21,4210.11 1310.32,4186.9 1310.32,4160.19C1310.32,4140.44 1302.06,4122.6 1288.81,4109.94C1315.16,4122.38 1342.91,4144.31 1373.8,4175.67C1375.92,4177.83 1375.92,4181.29 1373.8,4183.45C1271.67,4287.16 1203.79,4287.68 1107.49,4183.32C1105.53,4181.2 1105.53,4177.92 1107.49,4175.8C1139.77,4140.82 1168.85,4117.63 1197.1,4106.15C1196.74,4106.46 1196.37,4106.77 1196.01,4107.09ZM1197.45,4053.73L1171.15,3989.22C1170.25,3986.99 1167.74,3985.94 1165.55,3986.86C1163.37,3987.78 1162.33,3990.33 1163.23,3992.55L1189.53,4057.07C1190.43,4059.29 1192.94,4060.34 1195.13,4059.42C1197.32,4058.5 1198.36,4055.95 1197.45,4053.73ZM1091.12,4029.14C1087.88,4033.61 1085.97,4039.11 1085.97,4045.05C1085.97,4060.03 1098.14,4072.19 1113.12,4072.19C1118.9,4072.19 1124.27,4070.38 1128.67,4067.29L1141.26,4080.09C1142.93,4081.79 1145.65,4081.79 1147.32,4080.09C1149,4078.39 1149,4075.63 1147.32,4073.93L1134.88,4061.28C1138.26,4056.75 1140.27,4051.13 1140.27,4045.05C1140.27,4030.06 1128.1,4017.9 1113.12,4017.9C1107.19,4017.9 1101.7,4019.8 1097.24,4023.03L1049.72,3974.75C1048.05,3973.05 1045.33,3973.05 1043.66,3974.75C1041.99,3976.45 1041.99,3979.21 1043.66,3980.91L1091.12,4029.14ZM1128.08,4054.37C1126.53,4056.84 1124.39,4058.91 1121.85,4060.36C1119.27,4061.83 1116.29,4062.67 1113.12,4062.67C1103.39,4062.67 1095.49,4054.77 1095.49,4045.05C1095.49,4041.77 1096.39,4038.7 1097.95,4036.07C1099.44,4033.56 1101.54,4031.45 1104.04,4029.94C1106.69,4028.34 1109.8,4027.42 1113.12,4027.42C1122.85,4027.42 1130.75,4035.32 1130.75,4045.05C1130.75,4048.47 1129.77,4051.66 1128.08,4054.37ZM1320.6,4000.57L1353.14,3920.75C1354.04,3918.53 1353.01,3915.98 1350.82,3915.06C1348.63,3914.14 1346.12,3915.19 1345.22,3917.41L1312.68,3997.23C1311.78,3999.45 1312.82,4002.01 1315,4002.93C1317.19,4003.85 1319.7,4002.79 1320.6,4000.57ZM1158.55,3958.31L1141.88,3917.41C1140.98,3915.19 1138.47,3914.14 1136.29,3915.06C1134.1,3915.98 1133.06,3918.53 1133.96,3920.75L1150.63,3961.64C1151.54,3963.86 1154.05,3964.92 1156.23,3964C1158.42,3963.08 1159.46,3960.53 1158.55,3958.31Z" style="fill:white;"/>
            </g>
        </g>
    </g>
</svg>
